<?xml version="1.0" encoding="utf-8"?>
<!-- Generator: Adobe Illustrator 17.0.2, SVG Export Plug-In . SVG Version: 6.00 Build 0)  -->
<!DOCTYPE svg PUBLIC "-//W3C//DTD SVG 1.1//EN" "http://www.w3.org/Graphics/SVG/1.1/DTD/svg11.dtd">
<svg version="1.1" xmlns="http://www.w3.org/2000/svg" xmlns:xlink="http://www.w3.org/1999/xlink" x="0px" y="0px" width="102.5px"
	 height="99.954px" viewBox="0 0 102.5 99.954" enable-background="new 0 0 102.5 99.954" xml:space="preserve">
<g id="Background">
</g>
<g id="Style_Elements">
	<path fill="#FFFFFF" d="M67.572,26h-33.37l-9.206,46h51.783L67.572,26z M56.23,34.608c1.486,0,2.688,1.205,2.688,2.687
		s-1.202,2.687-2.688,2.687c-1.482,0-2.685-1.205-2.685-2.687S54.748,34.608,56.23,34.608z M46.642,33.712
		c1.979,0,3.583,1.605,3.583,3.58c0,1.979-1.604,3.583-3.583,3.583c-1.977,0-3.58-1.605-3.58-3.583
		C43.062,35.317,44.665,33.712,46.642,33.712z M50.806,49.982c10.191,0,18.476,8.979,18.726,13.009l-0.031,0.169
		c-0.618-0.235-8.75-3.255-18.695-3.255c-9.535,0-17.399,2.775-18.578,3.212C32.974,58.916,40.951,49.982,50.806,49.982z"/>
</g>
<g id="Grid" display="none">
</g>
<g id="Wireframe_Topper">
</g>
</svg>
