<?xml version="1.0" encoding="utf-8"?>
<!-- Generator: Adobe Illustrator 17.0.2, SVG Export Plug-In . SVG Version: 6.00 Build 0)  -->
<!DOCTYPE svg PUBLIC "-//W3C//DTD SVG 1.1//EN" "http://www.w3.org/Graphics/SVG/1.1/DTD/svg11.dtd">
<svg version="1.1" xmlns="http://www.w3.org/2000/svg" xmlns:xlink="http://www.w3.org/1999/xlink" x="0px" y="0px" width="102.5px"
	 height="99.954px" viewBox="0 0 102.5 99.954" enable-background="new 0 0 102.5 99.954" xml:space="preserve">
<g id="Background">
</g>
<g id="Style_Elements">
	<g>
		<circle fill="#255E7A" cx="50.341" cy="49.667" r="48.341"/>
		<g>
			<g>
				<path fill="#FFFFFF" d="M71.826,47.688L67.572,26h-33.37l-4.245,21.642c0.694,0.264,9.829,3.656,21,3.656
					C61.668,51.298,70.501,48.18,71.826,47.688z"/>
				<path fill="#FFFFFF" d="M76.779,72l-4.845-26.648c-0.838,4.714-9.906,14.475-20.976,14.475
					c-11.448,0-20.754-10.577-21.035-15.103L24.996,72H76.779z"/>
				<path fill="#E3E3E3" d="M72.004,45.34c0,0-0.065,0.023-0.178,0.065l0.107,0.603C71.975,45.778,72.004,45.547,72.004,45.34z"/>
				<path fill="#E3E3E3" d="M29.91,45.34c0,0.065,0.009,0.138,0.012,0.207l0.035-0.19C29.929,45.346,29.91,45.34,29.91,45.34z"/>
				<path fill="#255E7A" d="M50.957,60.16c11.07,0,20.138-9.433,20.976-14.151l-0.107-0.603c-1.324,0.491-10.158,3.608-20.869,3.608
					c-11.172,0-20.306-3.392-21-3.656l-0.035,0.19C30.203,50.074,39.509,60.16,50.957,60.16z"/>
			</g>
			<path fill="#255E7A" d="M50.225,34.292c0,1.979-1.604,3.583-3.583,3.583c-1.977,0-3.58-1.605-3.58-3.583
				c0-1.976,1.603-3.58,3.58-3.58C48.621,30.712,50.225,32.317,50.225,34.292z"/>
			<circle fill="#255E7A" cx="56.232" cy="34.295" r="2.686"/>
		</g>
	</g>
</g>
<g id="Grid" display="none">
</g>
<g id="Wireframe_Topper">
</g>
</svg>
