<?xml version="1.0" encoding="utf-8"?>
<!-- Generator: Adobe Illustrator 18.1.1, SVG Export Plug-In . SVG Version: 6.00 Build 0)  -->
<!DOCTYPE svg PUBLIC "-//W3C//DTD SVG 1.1//EN" "http://www.w3.org/Graphics/SVG/1.1/DTD/svg11.dtd">
<svg version="1.1" xmlns="http://www.w3.org/2000/svg" xmlns:xlink="http://www.w3.org/1999/xlink" x="0px" y="0px"
	 viewBox="0 0 100 101" enable-background="new 0 0 100 101" xml:space="preserve">
<g id="Background">
</g>
<g id="Style_Elements">
	<circle fill="#1563AB" cx="50.3" cy="50.7" r="48.3"/>
	<g>
		<g>
			<path fill="#DCDCDC" d="M69.8,44.1c0,0-0.1,0-0.2,0.1l0.1,0.6C69.8,44.5,69.8,44.3,69.8,44.1z"/>
			<path fill="#DCDCDC" d="M30.2,44.1c0,0.1,0,0.1,0,0.2L30.2,44.1C30.3,44.1,30.2,44.1,30.2,44.1z"/>
		</g>
	</g>
</g>
<g id="body">
	<polygon fill="#FFFFFF" points="65.7,23 34.3,23 30.3,44.7 25.6,71 74.3,71 	"/>
</g>
<g id="smile">
	<path fill="#1563AB" d="M50,56.4c12.1,0,14.9-10.5,14.9-10.5s-7.5,4-14.9,4s-15-4-15-4S37.8,56.4,50,56.4z"/>
</g>
<g id="Right_Eye">
	<circle fill="#1563AB" cx="55" cy="33.7" r="2.5"/>
</g>
<g id="Left_Eye">
	<path fill="#1563AB" d="M49.4,33.7c0,1.9-1.5,3.4-3.4,3.4c-1.9,0-3.4-1.5-3.4-3.4c0-1.9,1.5-3.4,3.4-3.4
		C47.8,30.3,49.4,31.8,49.4,33.7z"/>
</g>
</svg>
