<?xml version="1.0" encoding="utf-8"?>
<!-- Generator: Adobe Illustrator 17.0.2, SVG Export Plug-In . SVG Version: 6.00 Build 0)  -->
<!DOCTYPE svg PUBLIC "-//W3C//DTD SVG 1.1//EN" "http://www.w3.org/Graphics/SVG/1.1/DTD/svg11.dtd">
<svg version="1.1" xmlns="http://www.w3.org/2000/svg" xmlns:xlink="http://www.w3.org/1999/xlink" x="0px" y="0px" width="102.5px"
	 height="99.954px" viewBox="0 0 102.5 99.954" enable-background="new 0 0 102.5 99.954" xml:space="preserve">
<g id="Background">
</g>
<g id="Style_Elements">
	<g>
		<circle fill="#255E7A" cx="50.341" cy="49.667" r="48.341"/>
		<g>
			<g>
				<polygon fill="#FFFFFF" points="76.779,72 67.572,26 34.202,26 24.996,72 				"/>
				<path fill="#255E7A" d="M50.954,63.16c9.855,0,17.832-8.934,18.578-13.135l0,0c-1.179,0.437-9.043,3.212-18.578,3.212
					c-9.945,0-18.077-3.02-18.695-3.255l-0.031,0.169C32.478,54.181,40.763,63.16,50.954,63.16z"/>
			</g>
			<path fill="#255E7A" d="M50.225,34.292c0,1.979-1.604,3.583-3.583,3.583c-1.977,0-3.58-1.605-3.58-3.583
				c0-1.976,1.603-3.58,3.58-3.58C48.621,30.712,50.225,32.317,50.225,34.292z"/>
			<circle fill="#255E7A" cx="56.232" cy="34.295" r="2.686"/>
		</g>
	</g>
</g>
<g id="Grid" display="none">
</g>
<g id="Wireframe_Topper">
</g>
</svg>
